<svg width="24" height="24" viewBox="0 0 24 24" fill="none" xmlns="http://www.w3.org/2000/svg">
<path d="M15.9633 13.7778C16.4007 13.7778 16.79 13.5972 17.1312 13.2361C17.4724 12.875 17.643 12.4537 17.643 11.9722C17.643 11.5093 17.4724 11.1019 17.1312 10.75C16.79 10.3981 16.4007 10.2222 15.9633 10.2222C15.5258 10.2222 15.1365 10.3981 14.7953 10.75C14.4541 11.1019 14.2835 11.5093 14.2835 11.9722C14.2835 12.4537 14.4541 12.875 14.7953 13.2361C15.1365 13.5972 15.5258 13.7778 15.9633 13.7778ZM3.5748 18.8611V20.3333V3.66667V18.8611ZM3.5748 22C3.17235 22 2.80927 21.8333 2.48556 21.5C2.16185 21.1667 2 20.7778 2 20.3333V3.66667C2 3.24074 2.16185 2.85648 2.48556 2.51389C2.80927 2.1713 3.17235 2 3.5748 2H19.3228C19.7428 2 20.1102 2.1713 20.4252 2.51389C20.7402 2.85648 20.8976 3.24074 20.8976 3.66667V7.38889H19.3228V3.66667H3.5748V20.3333H19.3228V16.6389H20.8976V20.3333C20.8976 20.7778 20.7402 21.1667 20.4252 21.5C20.1102 21.8333 19.7428 22 19.3228 22H3.5748ZM12.9711 17.1944C12.3762 17.1944 11.9038 17.0093 11.5538 16.6389C11.2039 16.2685 11.0289 15.7778 11.0289 15.1667V8.86111C11.0289 8.23148 11.2039 7.73611 11.5538 7.375C11.9038 7.01389 12.3762 6.83333 12.9711 6.83333H20.0577C20.6527 6.83333 21.1251 7.01389 21.4751 7.375C21.825 7.73611 22 8.23148 22 8.86111V15.1667C22 15.7778 21.825 16.2685 21.4751 16.6389C21.1251 17.0093 20.6527 17.1944 20.0577 17.1944H12.9711ZM20.4252 15.5278V8.5H12.6037V15.5278H20.4252Z" fill="#FF7B00"/>
</svg>
