<svg width="24" height="24" viewBox="0 0 24 24" fill="none" xmlns="http://www.w3.org/2000/svg">
<path d="M6.55556 17.6389H8.22222V11.9444H6.55556V17.6389ZM15.7778 17.6389H17.4444V5.97222H15.7778V17.6389ZM11.1667 17.6389H12.8333V14.3611H11.1667V17.6389ZM11.1667 11.9444H12.8333V10.2778H11.1667V11.9444ZM3.66667 22C3.22222 22 2.83333 21.8333 2.5 21.5C2.16667 21.1667 2 20.7778 2 20.3333V3.66667C2 3.22222 2.16667 2.83333 2.5 2.5C2.83333 2.16667 3.22222 2 3.66667 2H20.3333C20.7778 2 21.1667 2.16667 21.5 2.5C21.8333 2.83333 22 3.22222 22 3.66667V20.3333C22 20.7778 21.8333 21.1667 21.5 21.5C21.1667 21.8333 20.7778 22 20.3333 22H3.66667ZM3.66667 20.3333H20.3333V3.66667H3.66667V20.3333ZM3.66667 3.66667V20.3333V3.66667Z" fill="#CED4D9"/>
</svg>
