<svg width="28" height="28" viewBox="0 0 28 28" fill="none" xmlns="http://www.w3.org/2000/svg">
<path d="M23.2167 24.4707L15.5458 16.7999C14.9625 17.3054 14.2819 17.6992 13.5042 17.9811C12.7264 18.2631 11.9 18.404 11.025 18.404C8.925 18.404 7.14583 17.6749 5.6875 16.2165C4.22917 14.7582 3.5 12.9985 3.5 10.9374C3.5 8.87626 4.22917 7.11654 5.6875 5.6582C7.14583 4.19987 8.91528 3.4707 10.9958 3.4707C13.0569 3.4707 14.8118 4.19987 16.2604 5.6582C17.709 7.11654 18.4333 8.87626 18.4333 10.9374C18.4333 11.7735 18.2972 12.5804 18.025 13.3582C17.7528 14.136 17.3444 14.8651 16.8 15.5457L24.5 23.1874L23.2167 24.4707ZM10.9958 16.654C12.5708 16.654 13.9125 16.095 15.0208 14.977C16.1292 13.8589 16.6833 12.5124 16.6833 10.9374C16.6833 9.36237 16.1292 8.01584 15.0208 6.89779C13.9125 5.77973 12.5708 5.2207 10.9958 5.2207C9.40139 5.2207 8.04514 5.77973 6.92708 6.89779C5.80903 8.01584 5.25 9.36237 5.25 10.9374C5.25 12.5124 5.80903 13.8589 6.92708 14.977C8.04514 16.095 9.40139 16.654 10.9958 16.654V16.654Z" fill="#C9C2C2"/>
</svg>
